# xmcd
# 
# Track frame offsets:
#     150
#     12437
#     19552
#     32377
#     40939
#     48990
#     61530
#     68732
#     86542
#     100777
#     105652
#     117660
#     124097
#     132100
#     144537
#     151082
#     158917
#     164850
#     170312
#     176425
# 
# Disc length: 2561
# 
# Revision: 6
# Processed by: cddbd v1.5.2PL0 Copyright (c) Steve Scherf et al.
# Submitted via: BonkEnc v1.0
# 
DISCID=fa09ff14
DTITLE=Weltbild Music - Kinderkieder CD 1
DYEAR=0
DGENRE=Other
TTITLE0=Sang und Klan im Kinderland
TTITLE1=Stille, Stille, kein Geräusch gemacht
TTITLE2=Ein Vogel wollte Hochzeit machen
TTITLE3=Die Gedanken sind frei
TTITLE4=Hänsel und Gretel
TTITLE5=Drei Chinnesen mit dem Kontrabass
TTITLE6=Eine kleine Geige möchte ich haben
TTITLE7=Auf der schwäbschen Eisenbahne
TTITLE8=Kinderträume
TTITLE9=ABC, die Katze lief im Schnee
TTITLE10=Auf der Mauer, auf der Lauer
TTITLE11=Ich fahr mit der Post
TTITLE12=Wer will fleisige Handwerker seh'n
TTITLE13=Spiel Okarina
TTITLE14=Häslein in der Grube
TTITLE15=Winter ade
TTITLE16=Hopp Hopp, Hopp, Pferdchen lauf Galopp
TTITLE17=Sur le pont d' Avignon
TTITLE18=Kommt ein Vogel geflogen
TTITLE19=Die Schule ist aus
EXTD=
EXTT0=
EXTT1=
EXTT2=
EXTT3=
EXTT4=
EXTT5=
EXTT6=
EXTT7=
EXTT8=
EXTT9=
EXTT10=
EXTT11=
EXTT12=
EXTT13=
EXTT14=
EXTT15=
EXTT16=
EXTT17=
EXTT18=
EXTT19=
PLAYORDER=
